name rise30.9205peak61.366fall85.3838.mot
datacolumns 19
datarows 36
range 10.52996400000000 10.58829900000000
endheader
time	ground_force1_vx	ground_force1_vy	ground_force1_vz	ground_force1_px	ground_force1_py	ground_force1_pz	ground_force2_vx	ground_force2_vy	ground_force2_vz	ground_force2_px	ground_force2_py	ground_force2_pz	ground_torque1_x	ground_torque1_y	ground_torque1_z	ground_torque2_x	ground_torque2_y	ground_torque2_z	
10.52996400000000	-2.80008600000000	690.99400200000002	42.06449400000000	0.21489600000000	0.00000000000000	0.13693000000000	0.00000000000000	0.00000000000000	0.00000000000000	0.00000000000000	0.00000000000000	0.00000000000000	0.00000000000000	16.42393900000000	0.00000000000000	0.00000000000000	0.00000000000000	0.00000000000000	
10.53164200000000	-3.14620900000000	690.77961200000004	42.15327400000000	0.21413800000000	0.00000000000000	0.13702400000000	0.00000000000000	0.00000000000000	0.00000000000000	0.00000000000000	0.00000000000000	0.00000000000000	0.00000000000000	16.51457800000000	0.00000000000000	0.00000000000000	0.00000000000000	0.00000000000000	
10.53329100000000	-3.50524600000000	690.61697200000003	42.24457800000000	0.21335300000000	0.00000000000000	0.13711800000000	0.00000000000000	0.00000000000000	0.00000000000000	0.00000000000000	0.00000000000000	0.00000000000000	0.00000000000000	16.60924800000000	0.00000000000000	0.00000000000000	0.00000000000000	0.00000000000000	
10.53496500000000	-3.87753600000000	690.50611600000002	42.33809500000000	0.21254100000000	0.00000000000000	0.13721100000000	0.00000000000000	0.00000000000000	0.00000000000000	0.00000000000000	0.00000000000000	0.00000000000000	0.00000000000000	16.70784200000000	0.00000000000000	0.00000000000000	0.00000000000000	0.00000000000000	
10.53662800000000	-4.26337400000000	690.44709200000000	42.43352800000000	0.21170100000000	0.00000000000000	0.13730400000000	0.00000000000000	0.00000000000000	0.00000000000000	0.00000000000000	0.00000000000000	0.00000000000000	0.00000000000000	16.81025600000000	0.00000000000000	0.00000000000000	0.00000000000000	0.00000000000000	
10.53830200000000	-4.66300700000000	690.43997300000001	42.53059800000000	0.21083500000000	0.00000000000000	0.13739700000000	0.00000000000000	0.00000000000000	0.00000000000000	0.00000000000000	0.00000000000000	0.00000000000000	0.00000000000000	16.91639100000000	0.00000000000000	0.00000000000000	0.00000000000000	0.00000000000000	
10.53995800000000	-5.07663500000000	690.48485100000005	42.62904000000000	0.20994100000000	0.00000000000000	0.13748800000000	0.00000000000000	0.00000000000000	0.00000000000000	0.00000000000000	0.00000000000000	0.00000000000000	0.00000000000000	17.02615400000000	0.00000000000000	0.00000000000000	0.00000000000000	0.00000000000000	
10.54166800000000	-5.50441000000000	690.58184600000004	42.72860900000000	0.20902000000000	0.00000000000000	0.13757900000000	0.00000000000000	0.00000000000000	0.00000000000000	0.00000000000000	0.00000000000000	0.00000000000000	0.00000000000000	17.13945600000000	0.00000000000000	0.00000000000000	0.00000000000000	0.00000000000000	
10.54329700000000	-5.94644100000000	690.73110199999996	42.82907500000000	0.20807400000000	0.00000000000000	0.13766800000000	0.00000000000000	0.00000000000000	0.00000000000000	0.00000000000000	0.00000000000000	0.00000000000000	0.00000000000000	17.25621300000000	0.00000000000000	0.00000000000000	0.00000000000000	0.00000000000000	
10.54496600000000	-6.40278400000000	690.93279099999995	42.93022700000000	0.20710200000000	0.00000000000000	0.13775700000000	0.00000000000000	0.00000000000000	0.00000000000000	0.00000000000000	0.00000000000000	0.00000000000000	0.00000000000000	17.37634500000000	0.00000000000000	0.00000000000000	0.00000000000000	0.00000000000000	
10.54663100000000	-6.87345500000000	691.18711399999995	43.03187200000000	0.20610600000000	0.00000000000000	0.13784500000000	0.00000000000000	0.00000000000000	0.00000000000000	0.00000000000000	0.00000000000000	0.00000000000000	0.00000000000000	17.49977500000000	0.00000000000000	0.00000000000000	0.00000000000000	0.00000000000000	
10.54829700000000	-7.35841900000000	691.49429799999996	43.13383300000000	0.20508600000000	0.00000000000000	0.13793100000000	0.00000000000000	0.00000000000000	0.00000000000000	0.00000000000000	0.00000000000000	0.00000000000000	0.00000000000000	17.62643400000000	0.00000000000000	0.00000000000000	0.00000000000000	0.00000000000000	
10.54996800000000	-7.85759900000000	691.85460000000000	43.23595300000000	0.20404300000000	0.00000000000000	0.13801600000000	0.00000000000000	0.00000000000000	0.00000000000000	0.00000000000000	0.00000000000000	0.00000000000000	0.00000000000000	17.75625200000000	0.00000000000000	0.00000000000000	0.00000000000000	0.00000000000000	
10.55162700000000	-8.37087100000000	692.26830199999995	43.33809300000000	0.20298000000000	0.00000000000000	0.13809900000000	0.00000000000000	0.00000000000000	0.00000000000000	0.00000000000000	0.00000000000000	0.00000000000000	0.00000000000000	17.88916500000000	0.00000000000000	0.00000000000000	0.00000000000000	0.00000000000000	
10.55329600000000	-8.89807100000000	692.73571300000003	43.44013100000000	0.20189700000000	0.00000000000000	0.13818100000000	0.00000000000000	0.00000000000000	0.00000000000000	0.00000000000000	0.00000000000000	0.00000000000000	0.00000000000000	18.02511000000000	0.00000000000000	0.00000000000000	0.00000000000000	0.00000000000000	
10.55496200000000	-9.43899000000000	693.25716699999998	43.54196300000000	0.20079600000000	0.00000000000000	0.13826100000000	0.00000000000000	0.00000000000000	0.00000000000000	0.00000000000000	0.00000000000000	0.00000000000000	0.00000000000000	18.16402800000000	0.00000000000000	0.00000000000000	0.00000000000000	0.00000000000000	
10.55663100000000	-9.99338100000000	693.83301800000004	43.64350500000000	0.19967800000000	0.00000000000000	0.13833900000000	0.00000000000000	0.00000000000000	0.00000000000000	0.00000000000000	0.00000000000000	0.00000000000000	0.00000000000000	18.30585900000000	0.00000000000000	0.00000000000000	0.00000000000000	0.00000000000000	
10.55830000000000	-10.56095500000000	694.46364400000004	43.74468700000000	0.19854600000000	0.00000000000000	0.13841500000000	0.00000000000000	0.00000000000000	0.00000000000000	0.00000000000000	0.00000000000000	0.00000000000000	0.00000000000000	18.45054800000000	0.00000000000000	0.00000000000000	0.00000000000000	0.00000000000000	
10.55996200000000	-11.14138600000000	695.14943500000004	43.84545900000000	0.19740100000000	0.00000000000000	0.13848900000000	0.00000000000000	0.00000000000000	0.00000000000000	0.00000000000000	0.00000000000000	0.00000000000000	0.00000000000000	18.59803600000000	0.00000000000000	0.00000000000000	0.00000000000000	0.00000000000000	
10.56163100000000	-11.73431300000000	695.89079900000002	43.94578900000000	0.19624400000000	0.00000000000000	0.13856100000000	0.00000000000000	0.00000000000000	0.00000000000000	0.00000000000000	0.00000000000000	0.00000000000000	0.00000000000000	18.74826800000000	0.00000000000000	0.00000000000000	0.00000000000000	0.00000000000000	
10.56329900000000	-12.33934100000000	696.68814999999995	44.04566000000000	0.19507800000000	0.00000000000000	0.13863000000000	0.00000000000000	0.00000000000000	0.00000000000000	0.00000000000000	0.00000000000000	0.00000000000000	0.00000000000000	18.90118700000000	0.00000000000000	0.00000000000000	0.00000000000000	0.00000000000000	
10.56495800000000	-12.95604000000000	697.54191200000002	44.14507200000000	0.19390500000000	0.00000000000000	0.13869700000000	0.00000000000000	0.00000000000000	0.00000000000000	0.00000000000000	0.00000000000000	0.00000000000000	0.00000000000000	19.05673300000000	0.00000000000000	0.00000000000000	0.00000000000000	0.00000000000000	
10.56662700000000	-13.58395100000000	698.45250499999997	44.24404200000000	0.19272600000000	0.00000000000000	0.13876200000000	0.00000000000000	0.00000000000000	0.00000000000000	0.00000000000000	0.00000000000000	0.00000000000000	0.00000000000000	19.21484600000000	0.00000000000000	0.00000000000000	0.00000000000000	0.00000000000000	
10.56829200000000	-14.22258600000000	699.42034799999999	44.34260400000000	0.19154400000000	0.00000000000000	0.13882400000000	0.00000000000000	0.00000000000000	0.00000000000000	0.00000000000000	0.00000000000000	0.00000000000000	0.00000000000000	19.37546500000000	0.00000000000000	0.00000000000000	0.00000000000000	0.00000000000000	
10.56996000000000	-14.87143200000000	700.44585099999995	44.44080500000000	0.19035900000000	0.00000000000000	0.13888300000000	0.00000000000000	0.00000000000000	0.00000000000000	0.00000000000000	0.00000000000000	0.00000000000000	0.00000000000000	19.53852400000000	0.00000000000000	0.00000000000000	0.00000000000000	0.00000000000000	
10.57162900000000	-15.52994900000000	701.52940799999999	44.53870900000000	0.18917500000000	0.00000000000000	0.13893900000000	0.00000000000000	0.00000000000000	0.00000000000000	0.00000000000000	0.00000000000000	0.00000000000000	0.00000000000000	19.70395300000000	0.00000000000000	0.00000000000000	0.00000000000000	0.00000000000000	
10.57329100000000	-16.19757600000000	702.67139099999997	44.63639300000000	0.18799200000000	0.00000000000000	0.13899300000000	0.00000000000000	0.00000000000000	0.00000000000000	0.00000000000000	0.00000000000000	0.00000000000000	0.00000000000000	19.87168000000000	0.00000000000000	0.00000000000000	0.00000000000000	0.00000000000000	
10.57496700000000	-16.87373100000000	703.87214600000004	44.73395100000000	0.18681300000000	0.00000000000000	0.13904300000000	0.00000000000000	0.00000000000000	0.00000000000000	0.00000000000000	0.00000000000000	0.00000000000000	0.00000000000000	20.04162700000000	0.00000000000000	0.00000000000000	0.00000000000000	0.00000000000000	
10.57663800000000	-17.55781300000000	705.13198599999998	44.83148700000000	0.18563900000000	0.00000000000000	0.13909100000000	0.00000000000000	0.00000000000000	0.00000000000000	0.00000000000000	0.00000000000000	0.00000000000000	0.00000000000000	20.21371200000000	0.00000000000000	0.00000000000000	0.00000000000000	0.00000000000000	
10.57829600000000	-18.24920700000000	706.45118100000002	44.92911900000000	0.18447300000000	0.00000000000000	0.13913500000000	0.00000000000000	0.00000000000000	0.00000000000000	0.00000000000000	0.00000000000000	0.00000000000000	0.00000000000000	20.38784700000000	0.00000000000000	0.00000000000000	0.00000000000000	0.00000000000000	
10.57996200000000	-18.94728200000000	707.82995500000004	45.02697900000000	0.18331400000000	0.00000000000000	0.13917600000000	0.00000000000000	0.00000000000000	0.00000000000000	0.00000000000000	0.00000000000000	0.00000000000000	0.00000000000000	20.56393900000000	0.00000000000000	0.00000000000000	0.00000000000000	0.00000000000000	
10.58162800000000	-19.65139600000000	709.26847799999996	45.12520800000000	0.18216500000000	0.00000000000000	0.13921400000000	0.00000000000000	0.00000000000000	0.00000000000000	0.00000000000000	0.00000000000000	0.00000000000000	0.00000000000000	20.74188700000000	0.00000000000000	0.00000000000000	0.00000000000000	0.00000000000000	
10.58329100000000	-20.36089700000000	710.76685699999996	45.22395900000000	0.18102700000000	0.00000000000000	0.13924900000000	0.00000000000000	0.00000000000000	0.00000000000000	0.00000000000000	0.00000000000000	0.00000000000000	0.00000000000000	20.92158700000000	0.00000000000000	0.00000000000000	0.00000000000000	0.00000000000000	
10.58495700000000	-21.07512500000000	712.32513100000006	45.32339500000000	0.17990200000000	0.00000000000000	0.13928100000000	0.00000000000000	0.00000000000000	0.00000000000000	0.00000000000000	0.00000000000000	0.00000000000000	0.00000000000000	21.10292600000000	0.00000000000000	0.00000000000000	0.00000000000000	0.00000000000000	
10.58662400000000	-21.79341300000000	713.94326200000000	45.42368800000000	0.17878900000000	0.00000000000000	0.13931000000000	0.00000000000000	0.00000000000000	0.00000000000000	0.00000000000000	0.00000000000000	0.00000000000000	0.00000000000000	21.28578500000000	0.00000000000000	0.00000000000000	0.00000000000000	0.00000000000000	
10.58829900000000	-22.51509200000000	715.62112999999999	45.52501800000000	0.17769200000000	0.00000000000000	0.13933500000000	0.00000000000000	0.00000000000000	0.00000000000000	0.00000000000000	0.00000000000000	0.00000000000000	0.00000000000000	21.47003700000000	0.00000000000000	0.00000000000000	0.00000000000000	0.00000000000000	
